<svg width="100" height="100" version="1.1" xmlns="http://www.w3.org/2000/svg" desc="Created with imagetracer.js version 1.2.6" ><path fill="rgb(243,241,243)" stroke="rgb(243,241,243)" stroke-width="1" opacity="1" d="M 51.5 22 L 52.5 24 L 51.5 22 Z " /><path fill="rgb(243,241,243)" stroke="rgb(243,241,243)" stroke-width="1" opacity="1" d="M 70.5 48 L 78 54.5 Q 80.7 57.8 80 64.5 L 78.5 68 L 77.5 67 L 70 67 Q 71.1 64.3 68.5 65 L 65 60.5 L 65 53.5 L 68.5 49 L 70.5 48 Z " /><path fill="rgb(243,241,243)" stroke="rgb(243,241,243)" stroke-width="1" opacity="1" d="M 43.5 59 Q 49 58 50 61.5 L 51 66.5 L 50 69 L 46.5 70 L 42 68 L 41 61.5 L 43.5 59 Z " /><path fill="rgb(243,241,243)" stroke="rgb(243,241,243)" stroke-width="1" opacity="1" d="M 77.5 69 L 76.5 71 L 77.5 69 Z " /><path fill="rgb(243,241,243)" stroke="rgb(243,241,243)" stroke-width="1" opacity="1" d="M 45.5 76 L 68 76.5 L 45.5 77 L 45.5 76 Z " /><path fill="rgb(236,159,44)" stroke="rgb(236,159,44)" stroke-width="1" opacity="1" d="M 46.5 21 L 52 23.5 L 53.5 26 L 56.5 25 L 57 26.5 L 56 28.5 L 56.5 30 Q 52.9 26.2 46 27 L 45 22.5 L 46.5 21 Z " /><path fill="rgb(236,159,44)" stroke="rgb(236,159,44)" stroke-width="1" opacity="1" d="M 42.5 22 L 41.5 24 L 42.5 22 Z " /><path fill="rgb(236,159,44)" stroke="rgb(236,159,44)" stroke-width="1" opacity="1" d="M 31.5 25 Q 37 23.5 38.5 26 L 40 25.5 L 37 27.5 L 40 28.5 L 38 29 Q 36.1 33.2 37 41.5 L 41.5 49 L 47 52.5 L 46 55 Q 38.7 54.9 36 60.5 L 34.5 65 Q 28.6 60.9 26 53.5 L 26 42.5 Q 28.2 34.1 34.5 30 L 37 28.5 L 30.5 27 L 29 27.5 L 31.5 25 Z " /><path fill="rgb(236,159,44)" stroke="rgb(236,159,44)" stroke-width="1" opacity="1" d="M 61.5 25 L 65 29.5 L 66 35.5 L 65 37.5 L 67 36.5 L 67.5 35 L 72 38.5 Q 74.6 45.8 68.5 44 L 60.5 32 L 58 30.5 L 60 30 L 62 26.5 L 61.5 25 Z " /><path fill="rgb(236,159,44)" stroke="rgb(236,159,44)" stroke-width="1" opacity="1" d="M 41.5 27 L 44 27.5 L 41.5 28 L 41.5 27 Z " /><path fill="rgb(236,159,44)" stroke="rgb(236,159,44)" stroke-width="1" opacity="1" d="M 26.5 60 L 27.5 62 L 26.5 60 Z " /><path fill="rgb(236,159,44)" stroke="rgb(236,159,44)" stroke-width="1" opacity="1" d="M 35.5 69 L 34.5 71 L 32 70.5 L 35.5 69 Z " /><path fill="rgb(255,255,255)" stroke="rgb(255,255,255)" stroke-width="1" opacity="1" d="M 0 0 L 100 0 L 100 100 L 0 100 L 0 0 Z M 45 20 L 41 22 L 40 25 L 37 24 L 31 25 L 28 28 L 27 34 L 23 36 L 20 40 Q 19 46 23 48 Q 19 50 20 57 Q 22 61 27 61 L 28 68 L 32 71 L 36 71 Q 39 76 46 77 L 68 77 L 73 75 Q 78 72 80 65 Q 81 58 78 55 L 70 48 L 73 44 L 72 38 Q 72 35 68 35 Q 64 34 65 28 L 61 24 L 57 25 Q 52 26 53 24 Q 51 19 45 20 Z " /><path fill="rgb(236,125,48)" stroke="rgb(236,125,48)" stroke-width="1" opacity="1" d="M 44.5 21 L 46 21.5 L 45 24.5 L 46 27 L 37.5 28 L 29 35.5 Q 24.4 41.4 26 53.5 Q 28.8 61.3 35 65.5 L 35 70 Q 30.3 71 29 67.5 L 28 61.5 L 26.5 60 Q 21.5 60.5 21 56.5 L 23 46.5 Q 20 44.5 21 38.5 L 28 33.5 Q 27.4 28.4 30.5 27 Q 31.7 29.3 36.5 28 L 44.5 21 Z " /><path fill="rgb(236,125,48)" stroke="rgb(236,125,48)" stroke-width="1" opacity="1" d="M 57 25 Q 60.8 24 62 26.5 L 60 30 L 56 28.5 L 57 25 Z " /><path fill="rgb(236,125,48)" stroke="rgb(236,125,48)" stroke-width="1" opacity="1" d="M 66.5 35 L 67 36.5 L 65 37.5 L 66.5 35 Z " /><path fill="rgb(236,125,48)" stroke="rgb(236,125,48)" stroke-width="1" opacity="1" d="M 67.5 43 L 71 44.5 L 70 48 Q 67.3 49.1 68 46.5 L 67.5 43 Z " /><path fill="rgb(247,198,58)" stroke="rgb(247,198,58)" stroke-width="1" opacity="1" d="M 33.5 24 L 36 24.5 L 33.5 25 L 33.5 24 Z " /><path fill="rgb(247,198,58)" stroke="rgb(247,198,58)" stroke-width="1" opacity="1" d="M 52.5 24 L 56 25.5 L 53.5 26 L 52.5 24 Z " /><path fill="rgb(247,198,58)" stroke="rgb(247,198,58)" stroke-width="1" opacity="1" d="M 44.5 27 Q 57.7 26.8 63 34.5 L 67 42.5 L 67 48 L 61.5 48 L 55.5 52 Q 48.2 50.2 46.5 54 Q 48.2 52 44.5 50 L 39 46.5 Q 35.7 41.8 37 32.5 L 38 29 L 44.5 27 Z " /><path fill="rgb(247,198,58)" stroke="rgb(247,198,58)" stroke-width="1" opacity="1" d="M 72.5 39 L 73 42.5 L 72 42.5 L 72.5 39 Z " /><path fill="rgb(247,198,58)" stroke="rgb(247,198,58)" stroke-width="1" opacity="1" d="M 21.5 57 L 22.5 59 L 21.5 57 Z " /><path fill="rgb(223,220,230)" stroke="rgb(223,220,230)" stroke-width="1" opacity="1" d="M 30.5 25 L 29.5 27 L 30.5 25 Z " /><path fill="rgb(223,220,230)" stroke="rgb(223,220,230)" stroke-width="1" opacity="1" d="M 22.5 36 L 21.5 38 L 22.5 36 Z " /><path fill="rgb(223,220,230)" stroke="rgb(223,220,230)" stroke-width="1" opacity="1" d="M 61.5 48 L 70 48.5 L 66 51.5 L 65 60.5 L 68.5 65 Q 71.1 64.3 70 67 L 77.5 67 L 78 68.5 L 73.5 74 L 69.5 76 L 42.5 76 L 37 72.5 Q 34.2 69.8 35 63.5 L 39.5 57 L 44.5 56 L 48.5 52 L 55.5 52 L 61.5 48 Z M 44 59 L 41 62 L 42 68 L 47 70 L 50 69 L 51 67 L 50 62 Q 49 58 44 59 Z " /><path fill="rgb(223,220,230)" stroke="rgb(223,220,230)" stroke-width="1" opacity="1" d="M 20.5 53 L 21 55.5 L 20 55.5 L 20.5 53 Z " /></svg>